# xmcd
#
# Track frame offsets:
#  150
#  9796
#  20560
#  30698
#  41841
#  53237
#  64396
#  76977
#  88220
#  99618
#  111529
#  122525
#  134936
#  144578
#  155480
#  167761
#  178774
#  187306
#  198118
#  208660
#  219165
#  230533
#  242597
#  253079
#  263844
#  274436
#  287303
#  295576
#  307842
#  318526
#
# Disc length: 4398 seconds
#
# Revision: 0
# Processed by: cddbd v1.5.2PL0 Copyright (c) Steve Scherf et al.
# Submitted via: AltoMP3_Maker 3.0
#
DISCID=c3112c1e
DTITLE=Margie Singleton - Pledging My Love
DYEAR=1900
DGENRE=
TTITLE0=Chained to a Promise
TTITLE1=Forget Me Not
TTITLE2=Living in the Danger Zone
TTITLE3=Her Image Keeps Getting in the Way
TTITLE4=I Don't Have to Look Pretty (to Stay Home and Cry)
TTITLE5=I Knew I Would See Him Again
TTITLE6=It's Too Much (3rd vocal)
TTITLE7=How Lonely She Must Be
TTITLE8=There You Go
TTITLE9=Sincerely Your Friend
TTITLE10=Poor Man's Roses
TTITLE11=Your Old Love Letters
TTITLE12=Pledging My Love
TTITLE13=I'll Just Walk on By
TTITLE14=I Don't Want You This Way
TTITLE15=No Thanks, I Just Had One (w Faron Young)
TTITLE16=Magic Star
TTITLE17=Walkin' Back to Happiness
TTITLE18=Don't Be Good to Me
TTITLE19=Another Woman's Man, Another Man's Woman (w Faron Young)
TTITLE20=The Cypress Tree
TTITLE21=Only Your Shadow Knows
TTITLE22=Burnt Fingers
TTITLE23=How Do You Celebrate Goodbye
TTITLE24=Are You Ever Too Young?
TTITLE25=She Will Break Your Heart
TTITLE26=Voices of Love
TTITLE27=Destination Love
TTITLE28=Toss a Pebble in the Water
TTITLE29=I Don't Have to Look Pretty (to Stay Home and Cry)
EXTD=
EXTT0=
EXTT1=
EXTT2=
EXTT3=
EXTT4=
EXTT5=
EXTT6=
EXTT7=
EXTT8=
EXTT9=
EXTT10=
EXTT11=
EXTT12=
EXTT13=
EXTT14=
EXTT15=
EXTT16=
EXTT17=
EXTT18=
EXTT19=
EXTT20=
EXTT21=
EXTT22=
EXTT23=
EXTT24=
EXTT25=
EXTT26=
EXTT27=
EXTT28=
EXTT29=
PLAYORDER=
